<svg width="142" height="16" viewBox="0 0 142 16" fill="none" xmlns="http://www.w3.org/2000/svg">
<path d="M2.98 6.96C2.44667 6.65333 2.02667 6.25333 1.72 5.76C1.42667 5.25333 1.28 4.65333 1.28 3.96C1.28 3.24 1.47333 2.58667 1.86 2C2.24667 1.41333 2.83333 0.946666 3.62 0.599999C4.42 0.239999 5.4 0.0599992 6.56 0.0599992C7.72 0.0599992 8.69333 0.239999 9.48 0.599999C10.28 0.946666 10.8733 1.41333 11.26 2C11.6467 2.58667 11.84 3.24 11.84 3.96C11.84 4.65333 11.6867 5.25333 11.38 5.76C11.0867 6.25333 10.6733 6.65333 10.14 6.96C11.4867 7.74667 12.16 8.92667 12.16 10.5C12.16 11.5133 11.9067 12.3733 11.4 13.08C10.8933 13.7867 10.2133 14.32 9.36 14.68C8.50667 15.04 7.57333 15.22 6.56 15.22C5.54667 15.22 4.61333 15.04 3.76 14.68C2.90667 14.32 2.22667 13.7867 1.72 13.08C1.21333 12.3733 0.96 11.5133 0.96 10.5C0.96 8.92667 1.63333 7.74667 2.98 6.96ZM7.48 4.7C7.48 4.32667 7.39333 4.03333 7.22 3.82C7.04667 3.59333 6.82667 3.48 6.56 3.48C6.29333 3.48 6.07333 3.59333 5.9 3.82C5.72667 4.03333 5.64 4.32667 5.64 4.7C5.64 5.08667 5.72667 5.38 5.9 5.58C6.07333 5.78 6.29333 5.88 6.56 5.88C6.82667 5.88 7.04667 5.78 7.22 5.58C7.39333 5.38 7.48 5.08667 7.48 4.7ZM6.56 8.86C6.16 8.86 5.84 8.99333 5.6 9.26C5.37333 9.51333 5.26 9.84 5.26 10.24C5.26 10.64 5.37333 10.9667 5.6 11.22C5.82667 11.4733 6.14667 11.6 6.56 11.6C6.97333 11.6 7.29333 11.4733 7.52 11.22C7.74667 10.9667 7.86 10.64 7.86 10.24C7.86 9.84 7.74 9.51333 7.5 9.26C7.27333 8.99333 6.96 8.86 6.56 8.86ZM13.7845 7.48C13.7845 5.17333 14.2712 3.36 15.2445 2.04C16.2312 0.719999 17.7445 0.0599992 19.7845 0.0599992C21.8112 0.0599992 23.3179 0.726666 24.3045 2.06C25.2912 3.38 25.7845 5.18667 25.7845 7.48C25.7845 9.78667 25.2912 11.6067 24.3045 12.94C23.3179 14.26 21.8112 14.92 19.7845 14.92C17.7445 14.92 16.2312 14.26 15.2445 12.94C14.2712 11.6067 13.7845 9.78667 13.7845 7.48ZM21.4045 7.48C21.4045 6.41333 21.2979 5.61333 21.0845 5.08C20.8712 4.53333 20.4379 4.26 19.7845 4.26C19.1179 4.26 18.6779 4.53333 18.4645 5.08C18.2512 5.61333 18.1445 6.41333 18.1445 7.48C18.1445 8.56 18.2512 9.37333 18.4645 9.92C18.6779 10.4533 19.1179 10.72 19.7845 10.72C20.4379 10.72 20.8712 10.4533 21.0845 9.92C21.2979 9.37333 21.4045 8.56 21.4045 7.48ZM27.0267 7.48C27.0267 5.17333 27.5134 3.36 28.4867 2.04C29.4734 0.719999 30.9867 0.0599992 33.0267 0.0599992C35.0534 0.0599992 36.5601 0.726666 37.5467 2.06C38.5334 3.38 39.0267 5.18667 39.0267 7.48C39.0267 9.78667 38.5334 11.6067 37.5467 12.94C36.5601 14.26 35.0534 14.92 33.0267 14.92C30.9867 14.92 29.4734 14.26 28.4867 12.94C27.5134 11.6067 27.0267 9.78667 27.0267 7.48ZM34.6467 7.48C34.6467 6.41333 34.5401 5.61333 34.3267 5.08C34.1134 4.53333 33.6801 4.26 33.0267 4.26C32.3601 4.26 31.9201 4.53333 31.7067 5.08C31.4934 5.61333 31.3867 6.41333 31.3867 7.48C31.3867 8.56 31.4934 9.37333 31.7067 9.92C31.9201 10.4533 32.3601 10.72 33.0267 10.72C33.6801 10.72 34.1134 10.4533 34.3267 9.92C34.5401 9.37333 34.6467 8.56 34.6467 7.48ZM49.3489 6.34V10H40.0289V6.34H49.3489ZM56.2323 10.44C56.299 10.8267 56.419 11.12 56.5923 11.32C56.779 11.5067 57.0323 11.6 57.3523 11.6C57.8457 11.6 58.1657 11.3533 58.3123 10.86C58.4723 10.3533 58.5523 9.54667 58.5523 8.44C58.3123 8.81333 57.9657 9.10667 57.5123 9.32C57.059 9.53333 56.5457 9.64 55.9723 9.64C54.7057 9.64 53.6857 9.24 52.9123 8.44C52.139 7.64 51.7523 6.48667 51.7523 4.98C51.7523 3.98 51.959 3.11333 52.3723 2.38C52.799 1.63333 53.399 1.06 54.1723 0.66C54.959 0.259999 55.8723 0.0599992 56.9123 0.0599992C59.019 0.0599992 60.479 0.679999 61.2923 1.92C62.119 3.16 62.5323 4.92667 62.5323 7.22C62.5323 9.86 62.1257 11.84 61.3123 13.16C60.5123 14.48 59.159 15.14 57.2523 15.14C56.199 15.14 55.2923 14.92 54.5323 14.48C53.7723 14.04 53.1857 13.4667 52.7723 12.76C52.3723 12.04 52.1457 11.2667 52.0923 10.44H56.2323ZM57.0723 6.24C57.4323 6.24 57.719 6.14 57.9323 5.94C58.1457 5.74 58.2523 5.46 58.2523 5.1C58.2523 4.7 58.1457 4.40667 57.9323 4.22C57.7323 4.02 57.4457 3.92 57.0723 3.92C56.699 3.92 56.4057 4.02 56.1923 4.22C55.9923 4.40667 55.8923 4.7 55.8923 5.1C55.8923 5.46 55.999 5.74 56.2123 5.94C56.4257 6.14 56.7123 6.24 57.0723 6.24ZM73.1259 3.64L68.5659 15H64.0059L68.6059 4.18H63.4459V0.38H73.1259V3.64ZM73.8803 11.46C75.667 10.1267 77.0803 8.92 78.1203 7.84C79.1603 6.74667 79.6803 5.72667 79.6803 4.78C79.6803 4.46 79.607 4.21333 79.4603 4.04C79.327 3.86667 79.147 3.78 78.9203 3.78C78.6536 3.78 78.4403 3.92 78.2803 4.2C78.1336 4.46667 78.0803 4.88 78.1203 5.44H73.8203C73.8603 4.2 74.127 3.18 74.6203 2.38C75.127 1.58 75.7803 0.993332 76.5803 0.619999C77.3803 0.246666 78.2603 0.0599992 79.2203 0.0599992C80.927 0.0599992 82.1736 0.473332 82.9603 1.3C83.7603 2.11333 84.1603 3.16 84.1603 4.44C84.1603 5.78667 83.727 7.05333 82.8603 8.24C82.007 9.41333 80.9336 10.4067 79.6403 11.22H84.2203V14.8H73.8803V11.46ZM94.3684 6.34V10H85.0484V6.34H94.3684ZM96.3719 4.54V0.38H103.152V15H98.4919V4.54H96.3719ZM104.8 7.48C104.8 5.17333 105.287 3.36 106.26 2.04C107.247 0.719999 108.76 0.0599992 110.8 0.0599992C112.827 0.0599992 114.333 0.726666 115.32 2.06C116.307 3.38 116.8 5.18667 116.8 7.48C116.8 9.78667 116.307 11.6067 115.32 12.94C114.333 14.26 112.827 14.92 110.8 14.92C108.76 14.92 107.247 14.26 106.26 12.94C105.287 11.6067 104.8 9.78667 104.8 7.48ZM112.42 7.48C112.42 6.41333 112.313 5.61333 112.1 5.08C111.887 4.53333 111.453 4.26 110.8 4.26C110.133 4.26 109.693 4.53333 109.48 5.08C109.267 5.61333 109.16 6.41333 109.16 7.48C109.16 8.56 109.267 9.37333 109.48 9.92C109.693 10.4533 110.133 10.72 110.8 10.72C111.453 10.72 111.887 10.4533 112.1 9.92C112.313 9.37333 112.42 8.56 112.42 7.48ZM124.702 4.82C124.622 4.42 124.502 4.12667 124.342 3.94C124.196 3.75333 123.962 3.66 123.642 3.66C123.136 3.66 122.796 3.92 122.622 4.44C122.462 4.94667 122.382 5.74 122.382 6.82C122.622 6.44667 122.969 6.15333 123.422 5.94C123.876 5.72667 124.389 5.62 124.962 5.62C126.242 5.62 127.262 6.01333 128.022 6.8C128.796 7.58667 129.182 8.72667 129.182 10.22C129.182 11.22 128.969 12.0933 128.542 12.84C128.129 13.5733 127.536 14.14 126.762 14.54C125.989 14.94 125.076 15.14 124.022 15.14C121.929 15.14 120.476 14.5 119.662 13.22C118.849 11.9267 118.442 10.12 118.442 7.8C118.442 5.98667 118.629 4.52 119.002 3.4C119.376 2.28 119.962 1.45333 120.762 0.919999C121.576 0.386666 122.629 0.12 123.922 0.12C125.509 0.12 126.702 0.573333 127.502 1.48C128.316 2.38667 128.762 3.5 128.842 4.82H124.702ZM123.862 9.02C123.502 9.02 123.216 9.12 123.002 9.32C122.789 9.52 122.682 9.8 122.682 10.16C122.682 10.56 122.782 10.86 122.982 11.06C123.196 11.2467 123.489 11.34 123.862 11.34C124.236 11.34 124.522 11.2467 124.722 11.06C124.936 10.86 125.042 10.56 125.042 10.16C125.042 9.8 124.936 9.52 124.722 9.32C124.509 9.12 124.222 9.02 123.862 9.02ZM135.139 10.44C135.205 10.8267 135.325 11.12 135.499 11.32C135.685 11.5067 135.939 11.6 136.259 11.6C136.752 11.6 137.072 11.3533 137.219 10.86C137.379 10.3533 137.459 9.54667 137.459 8.44C137.219 8.81333 136.872 9.10667 136.419 9.32C135.965 9.53333 135.452 9.64 134.879 9.64C133.612 9.64 132.592 9.24 131.819 8.44C131.045 7.64 130.659 6.48667 130.659 4.98C130.659 3.98 130.865 3.11333 131.279 2.38C131.705 1.63333 132.305 1.06 133.079 0.66C133.865 0.259999 134.779 0.0599992 135.819 0.0599992C137.925 0.0599992 139.385 0.679999 140.199 1.92C141.025 3.16 141.439 4.92667 141.439 7.22C141.439 9.86 141.032 11.84 140.219 13.16C139.419 14.48 138.065 15.14 136.159 15.14C135.105 15.14 134.199 14.92 133.439 14.48C132.679 14.04 132.092 13.4667 131.679 12.76C131.279 12.04 131.052 11.2667 130.999 10.44H135.139ZM135.979 6.24C136.339 6.24 136.625 6.14 136.839 5.94C137.052 5.74 137.159 5.46 137.159 5.1C137.159 4.7 137.052 4.40667 136.839 4.22C136.639 4.02 136.352 3.92 135.979 3.92C135.605 3.92 135.312 4.02 135.099 4.22C134.899 4.40667 134.799 4.7 134.799 5.1C134.799 5.46 134.905 5.74 135.119 5.94C135.332 6.14 135.619 6.24 135.979 6.24Z" fill="white"/>
</svg>
