<svg width="15" height="12" viewBox="0 0 15 12" fill="none" xmlns="http://www.w3.org/2000/svg">
<path fill-rule="evenodd" clip-rule="evenodd" d="M7.18004 10.0968L10.2601 7.04675H1.07005C0.928694 7.04676 0.788724 7.01875 0.65825 6.96436C0.527775 6.90996 0.409382 6.83028 0.309892 6.72986C0.210401 6.62944 0.13178 6.51037 0.078599 6.37939C0.0254183 6.24842 -0.00127437 6.10815 4.67477e-05 5.9668C2.16653e-05 5.8259 0.0280805 5.68644 0.0825968 5.55652C0.137113 5.42659 0.216993 5.30878 0.317552 5.21008C0.41811 5.11139 0.537337 5.03377 0.66826 4.98169C0.799182 4.92961 0.939158 4.90408 1.08003 4.90674H10.27L7.27004 1.82678C7.16996 1.72816 7.09049 1.61069 7.03624 1.48108C6.982 1.35147 6.95409 1.21228 6.95409 1.07178C6.95409 0.93127 6.982 0.792212 7.03624 0.662598C7.09049 0.532984 7.16996 0.415396 7.27004 0.316772C7.36952 0.216393 7.48792 0.136773 7.61836 0.0823975C7.74881 0.0280214 7.88872 0 8.03005 0C8.17137 0 8.31128 0.0280214 8.44173 0.0823975C8.57217 0.136773 8.69057 0.216393 8.79006 0.316772L13.7901 5.36682C13.9537 5.53167 14.0455 5.75453 14.0455 5.98682C14.0455 6.2191 13.9537 6.44197 13.7901 6.60681L8.74004 11.6068C8.5378 11.8071 8.2647 11.9194 7.98006 11.9194C7.69542 11.9194 7.42228 11.8071 7.22005 11.6068C7.01496 11.4116 6.89561 11.1431 6.88811 10.8601C6.88061 10.5771 6.98557 10.3026 7.18004 10.0968Z" fill="#0B1E2F"/>
</svg>
