<svg width="62" height="16" viewBox="0 0 62 16" fill="none" xmlns="http://www.w3.org/2000/svg">
<path d="M5.23633 11.2402H10.3145V15H0.636719V0.996094H10.2168V4.75586H5.23633V6.2793H9.68945V9.7168H5.23633V11.2402ZM20.9004 0.996094H25.334V15H21.5352L16.5938 8.37891V15H12.1602V0.996094H16.0957L20.9004 7.33398V0.996094ZM36.2715 0.996094H40.7051V15H36.9062L31.9648 8.37891V15H27.5312V0.996094H31.4668L36.2715 7.33398V0.996094ZM42.9023 15V0.996094H47.6582V15H42.9023ZM55.1094 15.4004C53.2669 15.4004 51.8281 14.974 50.793 14.1211C49.7643 13.2617 49.25 12.0736 49.25 10.5566H54.1523C54.1523 10.8626 54.237 11.1035 54.4062 11.2793C54.582 11.4551 54.8164 11.543 55.1094 11.543C55.3763 11.543 55.5911 11.4746 55.7539 11.3379C55.9232 11.1947 56.0078 11.0026 56.0078 10.7617C56.0078 10.5924 55.959 10.4427 55.8613 10.3125C55.7637 10.1823 55.6172 10.0749 55.4219 9.99023C55.2331 9.89909 55.0312 9.82096 54.8164 9.75586C54.6016 9.68424 54.3411 9.60938 54.0352 9.53125C54.0091 9.52474 53.9863 9.52148 53.9668 9.52148C53.9473 9.51497 53.9277 9.50846 53.9082 9.50195C52.834 9.23503 52.0462 8.97135 51.5449 8.71094C50.2363 8.03385 49.5365 6.93034 49.4453 5.40039C49.4388 5.2832 49.4355 5.16276 49.4355 5.03906C49.4355 3.64583 49.9238 2.55859 50.9004 1.77734C51.8835 0.989583 53.2539 0.595703 55.0117 0.595703C56.737 0.595703 58.0846 0.999349 59.0547 1.80664C60.0247 2.60742 60.5098 3.72396 60.5098 5.15625H55.793C55.793 4.88932 55.7246 4.68424 55.5879 4.54102C55.4512 4.39128 55.2591 4.31641 55.0117 4.31641C54.7708 4.31641 54.582 4.375 54.4453 4.49219C54.3151 4.60286 54.25 4.75911 54.25 4.96094C54.25 5.11719 54.2956 5.25716 54.3867 5.38086C54.4779 5.49805 54.6341 5.60872 54.8555 5.71289C55.0768 5.81055 55.2754 5.88867 55.4512 5.94727C55.627 5.99935 55.8971 6.07422 56.2617 6.17188C56.3073 6.1849 56.3431 6.19466 56.3691 6.20117C56.9095 6.3444 57.3327 6.46484 57.6387 6.5625C57.9447 6.65365 58.3418 6.81966 58.8301 7.06055C59.3249 7.30143 59.7057 7.56185 59.9727 7.8418C60.2396 8.12174 60.4772 8.50586 60.6855 8.99414C60.9004 9.47591 61.0078 10.026 61.0078 10.6445C61.0078 12.1419 60.487 13.3105 59.4453 14.1504C58.4102 14.9837 56.9648 15.4004 55.1094 15.4004Z" fill="#0B1E2F"/>
</svg>
