<svg width="60" height="60" viewBox="0 0 60 60" fill="none" xmlns="http://www.w3.org/2000/svg">
<path d="M52.4571 39.6428L51.2571 39.0428C50.9557 38.8683 50.6984 38.6268 50.5052 38.337C50.312 38.0472 50.1881 37.7168 50.1429 37.3714L49.7143 34.0286C49.6547 33.4374 49.4302 32.8749 49.0665 32.4051C48.7028 31.9353 48.2145 31.5772 47.6571 31.3714L42.5144 29.4428C42.2353 29.34 41.9806 29.1802 41.7666 28.9736C41.5527 28.767 41.384 28.5181 41.2715 28.2428L39 22.4143C38.9571 22.2166 38.9571 22.0119 39 21.8143C38.9456 21.4592 38.9625 21.0969 39.0499 20.7484C39.1372 20.4 39.2933 20.0725 39.5088 19.7852C39.7243 19.4978 39.995 19.2563 40.3051 19.0749C40.6151 18.8935 40.9583 18.7757 41.3144 18.7286L45.3 18.1714C45.7345 18.1066 46.1515 17.9556 46.5269 17.7275C46.9022 17.4994 47.2281 17.1986 47.4857 16.8428L49.3286 14.2714C47.0255 11.4063 44.1084 9.09484 40.7928 7.50748C37.4771 5.92013 33.8475 5.09742 30.1715 5.10001H29.7858L30.6429 9.77142C30.7439 10.3333 30.6212 10.9124 30.3008 11.3849C29.9805 11.8575 29.488 12.1859 28.9286 12.3H28.2C27.5428 12.164 26.8589 12.2661 26.27 12.5879C25.6812 12.9098 25.226 13.4306 24.9857 14.0571L23.8715 17.1C23.6862 17.6122 23.3128 18.0347 22.8271 18.2815C22.3415 18.5283 21.7801 18.5809 21.2571 18.4286L19.2429 17.8286C18.9719 17.713 18.6804 17.6535 18.3858 17.6535C18.0912 17.6535 17.7996 17.713 17.5286 17.8286C17.1187 18.0256 16.7547 18.3062 16.4599 18.6524C16.1651 18.9987 15.946 19.4028 15.8168 19.8388C15.6876 20.2748 15.6512 20.7331 15.7098 21.184C15.7685 21.635 15.9208 22.0686 16.1571 22.4571L18.3858 26.0571C18.6692 26.5307 19.0713 26.9222 19.5523 27.1928C20.0334 27.4634 20.5767 27.6037 21.1286 27.6H25.1572C25.4687 27.5409 25.7885 27.5409 26.1 27.6L30.1715 29.6571C30.47 29.8295 30.7279 30.0643 30.9276 30.3453C31.1273 30.6263 31.264 30.9471 31.3286 31.2857V32.2285C31.3872 32.6532 31.536 33.0603 31.7652 33.4226C31.9943 33.7848 32.2985 34.0938 32.6572 34.3285L34.9286 35.8714C35.5266 36.2729 35.9428 36.8934 36.0871 37.599C36.2314 38.3047 36.0923 39.0388 35.7 39.6428L35.3572 40.0285L32.1 43.4142C31.7159 43.8111 31.4361 44.2971 31.2857 44.8285L28.8857 53.8285C33.7809 54.0814 38.64 52.8662 42.8398 50.3387C47.0396 47.8112 50.3885 44.0866 52.4571 39.6428ZM18.6857 51.8142L18.943 49.6285C19.0513 48.6346 18.8088 47.6339 18.2572 46.7999L14.2714 41.0571C13.9252 40.5782 13.761 39.9917 13.8082 39.4026C13.8553 38.8136 14.1108 38.2606 14.5287 37.8428C14.8218 37.546 14.9862 37.1457 14.9862 36.7285C14.9862 36.3114 14.8218 35.911 14.5287 35.6142C14.4368 35.5022 14.3191 35.414 14.1858 35.3571L5.4001 30.3C5.46456 34.7517 6.73389 39.1029 9.07319 42.891C11.4125 46.6792 14.7342 49.7628 18.6857 51.8142ZM30 59.9999C24.0666 59.9999 18.2665 58.2405 13.333 54.944C8.39953 51.6476 4.55427 46.9623 2.28364 41.4805C0.0130166 35.9987 -0.581107 29.9667 0.576448 24.1473C1.734 18.3279 4.59132 12.9824 8.78689 8.7868C12.9825 4.59123 18.3279 1.73401 24.1473 0.576457C29.9668 -0.581099 35.9987 0.0129926 41.4805 2.28362C46.9622 4.55425 51.6476 8.39941 54.9441 13.3329C58.2405 18.2663 60 24.0665 60 30C60 37.9565 56.8393 45.5871 51.2132 51.2131C45.5871 56.8392 37.9565 59.9999 30 59.9999Z" fill="#0B1E2F"/>
</svg>
