<svg width="60" height="60" viewBox="0 0 60 60" fill="none" xmlns="http://www.w3.org/2000/svg">
<path d="M60 57.8556V2.1428C60 0.959365 59.0406 0 57.8572 0L38.1435 0C36.9601 0 36.0007 0.959365 36.0007 2.1428V57.8556C36.0007 59.0391 36.9601 59.9984 38.1435 59.9984H57.8572C59.0406 59.9984 60 59.0391 60 57.8556Z" fill="#0B1E2F"/>
<path d="M23.999 21.8566V2.1428C23.999 0.959365 23.0397 0 21.8562 0L2.14256 0C0.959118 0 -0.000246048 0.959365 -0.000246048 2.1428V21.8566C-0.000246048 23.04 0.959118 23.9994 2.14256 23.9994H21.8562C23.0397 23.9994 23.999 23.04 23.999 21.8566Z" fill="#0B1E2F"/>
<path d="M23.999 57.8556V38.1418C23.999 36.9584 23.0397 35.999 21.8562 35.999H2.14256C0.959118 35.999 -0.000246048 36.9584 -0.000246048 38.1418V57.8556C-0.000246048 59.0391 0.959118 59.9984 2.14256 59.9984H21.8562C23.0397 59.9984 23.999 59.0391 23.999 57.8556Z" fill="#0B1E2F"/>
</svg>
