<svg width="15" height="14" viewBox="0 0 15 14" fill="none" xmlns="http://www.w3.org/2000/svg">
<path d="M7.88036 4.43013V5.62855L8.12035 5.33141C8.4333 4.94279 8.84486 4.6374 9.31573 4.44441C9.7866 4.25142 10.3011 4.17722 10.8104 4.22883C11.352 4.24646 11.8808 4.39138 12.3504 4.65074C12.7219 4.86769 13.0436 5.15452 13.2963 5.49397C13.5489 5.83341 13.7272 6.21836 13.8204 6.62568C13.9398 7.07369 14.0003 7.53432 14.0004 7.99673V12.9341C14.0052 12.9627 14.0052 12.9919 14.0004 13.0205H11.0004V12.9341C11.0004 11.4002 11.0004 9.86624 11.0004 8.33226C11.0092 7.98951 10.9515 7.64812 10.8304 7.32554C10.7402 7.08103 10.5739 6.86904 10.3539 6.71814C10.1339 6.56724 9.87089 6.4847 9.6004 6.48185C9.37597 6.47546 9.15246 6.51204 8.94292 6.5894C8.73339 6.66676 8.54205 6.78336 8.38006 6.93242C8.21806 7.08149 8.08866 7.26001 7.99944 7.45755C7.91021 7.65509 7.86293 7.86773 7.86037 8.08298C7.86037 8.70616 7.86037 9.32929 7.86037 9.95247V13.0205H4.86035V4.39186L7.88036 4.43013Z" fill="white"/>
<path d="M0.0195312 4.42969H3.01953V13.0586H0.0195312V4.42969Z" fill="white"/>
<path d="M1.53003 2.93408C2.37504 2.93408 3.06006 2.27725 3.06006 1.46704C3.06006 0.656832 2.37504 0 1.53003 0C0.685017 0 0 0.656832 0 1.46704C0 2.27725 0.685017 2.93408 1.53003 2.93408Z" fill="white"/>
</svg>
