<svg width="36" height="60" viewBox="0 0 36 60" fill="none" xmlns="http://www.w3.org/2000/svg">
<path d="M6.8144 0H28.6714C30.4787 0 32.2121 0.717923 33.49 1.99585C34.7679 3.27378 35.4858 5.00688 35.4858 6.81414V53.1859C35.4858 54.9931 34.7679 56.7262 33.49 58.0042C32.2121 59.2821 30.4787 60 28.6714 60H6.8144C5.00714 60 3.27391 59.2821 1.99598 58.0042C0.718054 56.7262 0 54.9931 0 53.1859V6.81414C0 5.00688 0.718054 3.27378 1.99598 1.99585C3.27391 0.717923 5.00714 0 6.8144 0ZM17.8715 55.2858C18.8886 55.2858 19.883 54.984 20.7287 54.4189C21.5745 53.8538 22.2337 53.0505 22.6229 52.1108C23.0122 51.171 23.1141 50.1374 22.9156 49.1398C22.7172 48.1421 22.2273 47.2254 21.5081 46.5062C20.7888 45.7869 19.8724 45.2973 18.8748 45.0989C17.8772 44.9004 16.8431 45.0021 15.9034 45.3913C14.9636 45.7806 14.1604 46.4399 13.5953 47.2857C13.0302 48.1314 12.7286 49.1255 12.7286 50.1426C12.7282 51.4846 13.2524 52.7738 14.1892 53.7347C15.1261 54.6955 16.4014 55.2523 17.7429 55.2858H17.8715Z" fill="#0B1E2F"/>
</svg>
