<svg width="47" height="46" viewBox="0 0 47 46" fill="none" xmlns="http://www.w3.org/2000/svg">
<path d="M43.9343 0.000208385H2.698C2.34527 -0.00420104 1.99523 0.0614057 1.66808 0.193344C1.34093 0.325282 1.04324 0.520804 0.792262 0.768684C0.541283 1.01657 0.341935 1.3121 0.205943 1.63759C0.0699516 1.96308 -2.75519e-05 2.31232 8.13738e-09 2.66507V31.6102C8.13776e-09 32.3257 0.284254 33.012 0.790229 33.518C1.2962 34.0239 1.98244 34.3084 2.698 34.3084H43.9343C44.6498 34.3084 45.3361 34.0239 45.842 33.518C46.348 33.012 46.6323 32.3257 46.6323 31.6102V2.66507C46.6323 2.31232 46.5623 1.96308 46.4263 1.63759C46.2903 1.3121 46.091 1.01657 45.84 0.768684C45.589 0.520804 45.2913 0.325282 44.9642 0.193344C44.637 0.0614057 44.287 -0.00420104 43.9343 0.000208385ZM41.2696 22.9167C39.8512 23.3575 38.5613 24.1368 37.511 25.1871C36.4607 26.2374 35.6815 27.5273 35.2407 28.9457H11.3915C10.9507 27.5273 10.1716 26.2374 9.12128 25.1871C8.07099 24.1368 6.78108 23.3575 5.36266 22.9167V11.392C6.77842 10.9461 8.06582 10.1654 9.11539 9.1158C10.1649 8.06624 10.9457 6.77863 11.3915 5.36287H35.2407C35.6866 6.77863 36.4673 8.06624 37.5169 9.1158C38.5664 10.1654 39.8538 10.9461 41.2696 11.392V22.9167Z" fill="#0B1E2F"/>
<path d="M23.3165 9.99383C21.8414 9.71981 20.3177 9.90715 18.953 10.5305C17.5884 11.1539 16.4492 12.1832 15.6907 13.4776C14.9321 14.772 14.591 16.2687 14.714 17.764C14.837 19.2592 15.4181 20.6802 16.378 21.8332C17.338 22.9862 18.6301 23.815 20.0783 24.207C21.5265 24.5989 23.0604 24.535 24.4708 24.0236C25.8813 23.5122 27.0997 22.5781 27.9601 21.349C28.8205 20.1199 29.2808 18.6556 29.2787 17.1553C29.4184 15.4191 28.8726 13.6972 27.7582 12.3586C26.6437 11.02 25.0492 10.1711 23.3165 9.99383Z" fill="#0B1E2F"/>
<path d="M0 42.9691C0 43.773 0.319372 44.5439 0.887813 45.1123C1.45625 45.6808 2.22711 46.0004 3.03101 46.0004H43.6013C44.4052 46.0004 45.176 45.6808 45.7444 45.1123C46.3129 44.5439 46.6323 43.773 46.6323 42.9691V40.6377H0V42.9691Z" fill="#0B1E2F"/>
</svg>
