<svg width="23" height="19" viewBox="0 0 23 19" fill="none" xmlns="http://www.w3.org/2000/svg">
<path d="M6.42846 0H20.9281C21.3554 0 21.7652 0.169873 22.0673 0.472032C22.3694 0.774192 22.5392 1.18389 22.5392 1.6112V2.27185C22.5392 2.69917 22.3694 3.10906 22.0673 3.41122C21.7652 3.71338 21.3554 3.88306 20.9281 3.88306H6.42846C6.00117 3.88306 5.59131 3.71338 5.28918 3.41122C4.98705 3.10906 4.81738 2.69917 4.81738 2.27185V1.6112C4.81738 1.18389 4.98705 0.774192 5.28918 0.472032C5.59131 0.169873 6.00117 0 6.42846 0Z" fill="#0D464F"/>
<path d="M1.61108 7.37891H20.944C21.3713 7.37891 21.781 7.54859 22.0832 7.85075C22.3853 8.15292 22.5551 8.56282 22.5551 8.99014V9.65061C22.5551 10.0779 22.3853 10.4878 22.0832 10.79C21.781 11.0922 21.3713 11.2618 20.944 11.2618H1.61108C1.18379 11.2618 0.773933 11.0922 0.471798 10.79C0.169663 10.4878 0 10.0779 0 9.65061V8.99014C0 8.56282 0.169663 8.15292 0.471798 7.85075C0.773933 7.54859 1.18379 7.37891 1.61108 7.37891Z" fill="#0D464F"/>
<path d="M12.0671 14.7588H20.8958C21.3231 14.7588 21.7328 14.9285 22.035 15.2306C22.3371 15.5328 22.5069 15.9427 22.5069 16.37V17.0307C22.5069 17.458 22.3371 17.8678 22.035 18.1699C21.7328 18.4721 21.3231 18.642 20.8958 18.642H12.0671C11.6398 18.642 11.23 18.4721 10.9279 18.1699C10.6257 17.8678 10.4561 17.458 10.4561 17.0307V16.37C10.4561 15.9427 10.6257 15.5328 10.9279 15.2306C11.23 14.9285 11.6398 14.7588 12.0671 14.7588Z" fill="#0D464F"/>
</svg>
