<svg width="63" height="65" viewBox="0 0 63 65" fill="none" xmlns="http://www.w3.org/2000/svg">
<path d="M60.3445 2.66705C60.3029 2.33447 60.1692 2.02063 59.9584 1.76001C59.7476 1.4994 59.4682 1.30278 59.1517 1.19249C58.8352 1.08219 58.4941 1.06245 58.167 1.13562C57.84 1.20879 57.5398 1.37166 57.3005 1.60631L50.9816 7.92513C45.5598 2.83382 38.4018 0 30.9643 0C23.5267 0 16.3687 2.83382 10.9469 7.92513C7.03754 11.5692 4.22563 16.2345 2.82923 21.3932C2.76292 21.7066 2.76267 22.0301 2.82839 22.3436C2.89411 22.6571 3.02438 22.9537 3.21096 23.2141C3.39755 23.4744 3.63632 23.6929 3.91207 23.8559C4.18781 24.0189 4.4945 24.1226 4.81255 24.1605L12.4228 25.0371C12.9587 25.0814 13.4936 24.9406 13.9384 24.6385C14.3832 24.3364 14.711 23.8907 14.8673 23.3762C15.748 20.7201 17.3439 18.3582 19.4796 16.5501C22.5219 13.8048 26.5179 12.3596 30.6124 12.5233C34.707 12.6871 38.5748 14.4472 41.388 17.4267L35.6226 23.1459C35.3916 23.3905 35.2319 23.6937 35.1608 24.0226C35.0896 24.3514 35.1098 24.6935 35.219 25.0118C35.3283 25.33 35.5224 25.6124 35.7806 25.8282C36.0387 26.044 36.351 26.1847 36.6835 26.2358L60.2523 29.1416C60.6223 29.1959 60.9997 29.1634 61.3547 29.0459C61.7096 28.9283 62.0322 28.7292 62.2966 28.4648C62.5609 28.2004 62.7598 27.8778 62.8774 27.5229C62.9949 27.1679 63.0279 26.7904 62.9736 26.4205L60.3445 2.66705Z" fill="#0B1E2F"/>
<path d="M2.87643 61.8421C2.91067 62.1785 3.03904 62.4981 3.24683 62.7649C3.45463 63.0317 3.73344 63.2348 4.05125 63.3504C4.36906 63.466 4.71302 63.4895 5.04365 63.4185C5.37429 63.3475 5.67822 63.1848 5.92057 62.949L12.2394 56.6302C17.6559 61.7317 24.8159 64.5727 32.2567 64.5727C39.6975 64.5727 46.8575 61.7317 52.2741 56.6302C56.1819 53.0034 58.9943 48.3533 60.3917 43.2082C60.4581 42.8949 60.4584 42.5713 60.3927 42.2578C60.3269 41.9443 60.1966 41.6478 60.01 41.3874C59.8234 41.1271 59.5847 40.9085 59.3089 40.7456C59.0332 40.5826 58.7265 40.4789 58.4084 40.441L50.7982 39.5182C50.2638 39.4823 49.7328 39.6266 49.2898 39.9275C48.8468 40.2284 48.5172 40.6691 48.3537 41.1791C47.474 43.8487 45.8787 46.2258 43.7414 48.0514C40.6991 50.7967 36.7031 52.2419 32.6085 52.0781C28.514 51.9143 24.6462 50.1543 21.833 47.1747L27.3677 41.5017C27.6024 41.2624 27.7654 40.9623 27.8386 40.6352C27.9118 40.3081 27.8921 39.967 27.7818 39.6505C27.6715 39.334 27.475 39.0544 27.2143 38.8437C26.9537 38.6329 26.6395 38.4991 26.3069 38.4574L2.73807 35.5055C2.36754 35.4685 1.99343 35.5151 1.64327 35.6417C1.29311 35.7684 0.975786 35.9725 0.714703 36.238C0.453619 36.5035 0.25543 36.8237 0.134647 37.176C0.0138642 37.5282 -0.0263826 37.9035 0.0168341 38.2733L2.87643 61.8421Z" fill="#0B1E2F"/>
</svg>
