<svg width="55" height="60" viewBox="0 0 55 60" fill="none" xmlns="http://www.w3.org/2000/svg">
<path d="M52.0092 8.86867L29.0744 0.303913C28.0634 -0.101304 26.9366 -0.101304 25.9256 0.303913L2.99075 8.86867C2.12306 9.19686 1.37428 9.78139 0.842703 10.5457C0.311129 11.3099 0.0216912 12.2182 0.0122834 13.151V25.9982C-0.200782 33.9258 2.36375 41.6762 7.25686 47.8926C12.15 54.1089 19.0597 58.3947 26.7766 60H28.2234C35.9403 58.3947 42.85 54.1089 47.7431 47.8926C52.6362 41.6762 55.2008 33.9258 54.9877 25.9982V13.151C54.9783 12.2182 54.6889 11.3099 54.1573 10.5457C53.6257 9.78139 52.8769 9.19686 52.0092 8.86867Z" fill="#0B1E2F"/>
</svg>
