<svg width="15" height="12" viewBox="0 0 15 12" fill="none" xmlns="http://www.w3.org/2000/svg">
<path fill-rule="evenodd" clip-rule="evenodd" d="M13.59 1.06905C13.0243 1.37973 12.4096 1.59987 11.77 1.72095C11.4971 1.4522 11.1705 1.23895 10.8097 1.09398C10.4488 0.949014 10.0612 0.875298 9.67001 0.877228C9.29836 0.872156 8.92931 0.937361 8.58393 1.06905C8.23855 1.20074 7.92361 1.39636 7.6571 1.64476C7.39058 1.89316 7.17772 2.18952 7.03066 2.51681C6.8836 2.84409 6.80522 3.19591 6.8 3.55224C6.80138 3.75908 6.82824 3.96506 6.88001 4.16586C5.75008 4.11602 4.64299 3.84336 3.62786 3.36498C2.61273 2.88659 1.71136 2.21271 0.98 1.3854C0.723535 1.78985 0.588572 2.25438 0.590001 2.72771C0.589785 3.17222 0.705944 3.6096 0.927831 3.9999C1.14972 4.3902 1.47023 4.72089 1.86 4.9616C1.40575 4.94562 0.961223 4.83089 0.560002 4.62605C0.565864 5.25329 0.799811 5.85886 1.22151 6.33843C1.6432 6.818 2.22621 7.14149 2.87 7.25308C2.62263 7.31915 2.36678 7.3514 2.11 7.34893C1.93034 7.36399 1.74966 7.36399 1.57 7.34893C1.7619 7.88623 2.1225 8.35342 2.60233 8.68643C3.08215 9.01945 3.6577 9.20204 4.25 9.20901C3.22662 9.95456 1.97529 10.3555 0.689999 10.3499C0.449999 10.3499 0.22 10.3499 0 10.3499C1.32086 11.1361 2.84528 11.5514 4.4 11.5484C5.46563 11.5713 6.5253 11.3899 7.51678 11.0148C8.50826 10.6396 9.41154 10.0783 10.1736 9.36373C10.9356 8.64919 11.5411 7.79588 11.9543 6.85386C12.3675 5.91184 12.5803 4.90013 12.58 3.87819C12.58 3.76313 12.58 3.64809 12.58 3.53304C13.1405 3.16034 13.6252 2.69248 14.01 2.15247C13.4838 2.36779 12.9282 2.50979 12.36 2.57427C12.9463 2.23158 13.3833 1.69688 13.59 1.06905Z" fill="white"/>
</svg>
