<svg width="14" height="11" viewBox="0 0 14 11" fill="none" xmlns="http://www.w3.org/2000/svg">
<path d="M13.7094 2.31239C13.6307 2.02584 13.4746 1.76428 13.2569 1.55391C13.0393 1.34353 12.7676 1.19176 12.4694 1.11398C8.83297 0.743255 5.16581 0.743255 1.5294 1.11398C1.23115 1.19176 0.959524 1.34353 0.741848 1.55391C0.524173 1.76428 0.368123 2.02584 0.289396 2.31239C-0.0964652 4.46333 -0.0964652 6.66167 0.289396 8.8126C0.369954 9.0983 0.526635 9.359 0.74403 9.5691C0.961426 9.77921 1.23207 9.93149 1.5294 10.011C5.16581 10.3817 8.83297 10.3817 12.4694 10.011C12.7667 9.93149 13.0374 9.77921 13.2547 9.5691C13.4721 9.359 13.6288 9.0983 13.7094 8.8126C14.0952 6.66167 14.0952 4.46333 13.7094 2.31239ZM5.5694 7.55661V3.56839L9.22938 5.5625L5.5694 7.55661Z" fill="white"/>
</svg>
